<svg id="Raggruppa_2" data-name="Raggruppa 2" xmlns="http://www.w3.org/2000/svg" width="32.807" height="18.864" viewBox="0 0 32.807 18.864">
  <g id="Raggruppa_5" data-name="Raggruppa 5">
    <path id="Tracciato_51" data-name="Tracciato 51" d="M32.807,17.634a1.231,1.231,0,0,0-1.23-1.23H1.23a1.23,1.23,0,0,0,0,2.461H31.577a1.231,1.231,0,0,0,1.23-1.23m0-8.2a1.231,1.231,0,0,0-1.23-1.23H1.23a1.23,1.23,0,0,0,0,2.461H31.577a1.231,1.231,0,0,0,1.23-1.23m0-8.2A1.231,1.231,0,0,0,31.577,0H1.23a1.23,1.23,0,0,0,0,2.461H31.577a1.231,1.231,0,0,0,1.23-1.23" fill="#fff"/>
  </g>
</svg>
