<svg width="37" height="36" viewBox="0 0 37 36" fill="none" xmlns="http://www.w3.org/2000/svg">
<g clip-path="url(#clip0_2_6)">
<path d="M18.5 35.5C28.4411 35.5 36.5 27.665 36.5 18C36.5 8.33502 28.4411 0.5 18.5 0.5C8.55887 0.5 0.5 8.33502 0.5 18C0.5 27.665 8.55887 35.5 18.5 35.5Z" stroke="#C3BDB1"/>
<g clip-path="url(#clip1_2_6)">
<path d="M17.76 10.579C20.099 10.579 20.376 10.588 21.301 10.63C23.675 10.738 24.784 11.864 24.892 14.221C24.934 15.144 24.942 15.421 24.942 17.761C24.942 20.101 24.933 20.377 24.892 21.301C24.783 23.655 23.677 24.784 21.301 24.892C20.377 24.934 20.101 24.943 17.76 24.943C15.419 24.943 15.144 24.934 14.22 24.892C11.84 24.783 10.737 23.652 10.629 21.3C10.587 20.377 10.578 20.1 10.578 17.76C10.578 15.42 10.587 15.144 10.629 14.22C10.738 11.865 11.844 10.737 14.22 10.629C15.144 10.588 15.421 10.579 17.76 10.579ZM17.76 9C15.381 9 15.083 9.01 14.149 9.053C10.967 9.2 9.2 10.964 9.053 14.148C9.01 15.083 9 15.381 9 17.76C9 20.139 9.01 20.438 9.053 21.372C9.199 24.553 10.964 26.321 14.153 26.472C15.088 26.514 15.386 26.525 17.765 26.525C20.144 26.525 20.443 26.515 21.377 26.472C24.555 26.326 26.328 24.561 26.472 21.372C26.515 20.438 26.525 20.139 26.525 17.76C26.525 15.381 26.515 15.083 26.472 14.149C26.324 10.97 24.557 9.2 21.373 9.053C20.438 9.01 20.139 9 17.76 9ZM17.76 13.262C16.87 13.262 16 13.5259 15.2599 14.0204C14.5199 14.5149 13.9431 15.2177 13.6025 16.0399C13.2619 16.8622 13.1728 17.767 13.3465 18.6399C13.5201 19.5128 13.9487 20.3146 14.578 20.944C15.2074 21.5733 16.0092 22.0019 16.8821 22.1755C17.755 22.3492 18.6598 22.2601 19.4821 21.9195C20.3043 21.5789 21.0071 21.0021 21.5016 20.2621C21.9961 19.522 22.26 18.652 22.26 17.762C22.26 16.5685 21.7859 15.4239 20.942 14.58C20.0981 13.7361 18.9535 13.262 17.76 13.262ZM17.76 20.68C17.1825 20.68 16.6179 20.5087 16.1377 20.1879C15.6575 19.867 15.2833 19.411 15.0623 18.8774C14.8413 18.3439 14.7834 17.7568 14.8961 17.1903C15.0088 16.6239 15.2869 16.1036 15.6952 15.6952C16.1036 15.2869 16.6239 15.0088 17.1903 14.8961C17.7568 14.7834 18.3439 14.8413 18.8774 15.0623C19.411 15.2833 19.867 15.6575 20.1879 16.1377C20.5087 16.6179 20.68 17.1825 20.68 17.76C20.68 18.5344 20.3724 19.2771 19.8248 19.8248C19.2771 20.3724 18.5344 20.68 17.76 20.68ZM22.436 12.033C22.2281 12.0328 22.0248 12.0943 21.8518 12.2096C21.6789 12.325 21.544 12.4891 21.4643 12.6811C21.3846 12.8731 21.3636 13.0845 21.4041 13.2884C21.4445 13.4924 21.5445 13.6797 21.6915 13.8268C21.8384 13.9739 22.0257 14.0741 22.2296 14.1147C22.4335 14.1554 22.6449 14.1346 22.837 14.0551C23.0291 13.9756 23.1933 13.8409 23.3088 13.668C23.4243 13.4952 23.486 13.2919 23.486 13.084C23.4857 12.8055 23.3751 12.5385 23.1782 12.3415C22.9814 12.1445 22.7145 12.0335 22.436 12.033Z" fill="#C3BDB1"/>
</g>
</g>
<defs>
<clipPath id="clip0_2_6">
<rect width="37" height="36" fill="white"/>
</clipPath>
<clipPath id="clip1_2_6">
<rect width="17.52" height="17.52" fill="white" transform="translate(9 9)"/>
</clipPath>
</defs>
</svg>
